PathFileType	4	(X/Y/Z)	C:\Users\Basilio\Documents\Thesis Gigler\squatting_fais\c3dfiles\044\SJ_pre2\markers_experimental.trc
DataRate	CameraRate	NumFrames	NumMarkers	Units	OrigDataRate	OrigDataStartFrame	OrigNumFrames
200.000000	200.000000	4	62	mm	200.000000	0	1708
Frame#	Time	FHD			LBHD			RBHD			C7			T10			CLAV			LSHO			LUUPA			LMUPA			LDUPA			LLEP			LMEP			LRAD			LUL			LRFIN			RSHO			RUPA1			RMUPA			RDUPA			RLEP			RMEP			RRAD			RUL			RUFIN			LASI			RASI			USACR			LSACR			LTHI1			LTHI2			LTHI3			LTHI4			LLFC			LMFC			LTIB1			LTIB2			LTIB3			LTIB4			LLMAL			LMMAL			LHEE			LMT1			LMT2			LMT5			RTHI			RTHI2			RTHI3			RTHI4			RLFC			RMFC			RTIB1			RTIB2			RTIB3			RTIB4			RLMAL			RMMAL			RHEE			RMT1			RMT2			RMT5			RSACR			*61			
		X1	Y1	Z1	X2	Y2	Z2	X3	Y3	Z3	X4	Y4	Z4	X5	Y5	Z5	X6	Y6	Z6	X7	Y7	Z7	X8	Y8	Z8	X9	Y9	Z9	X10	Y10	Z10	X11	Y11	Z11	X12	Y12	Z12	X13	Y13	Z13	X14	Y14	Z14	X15	Y15	Z15	X16	Y16	Z16	X17	Y17	Z17	X18	Y18	Z18	X19	Y19	Z19	X20	Y20	Z20	X21	Y21	Z21	X22	Y22	Z22	X23	Y23	Z23	X24	Y24	Z24	X25	Y25	Z25	X26	Y26	Z26	X27	Y27	Z27	X28	Y28	Z28	X29	Y29	Z29	X30	Y30	Z30	X31	Y31	Z31	X32	Y32	Z32	X33	Y33	Z33	X34	Y34	Z34	X35	Y35	Z35	X36	Y36	Z36	X37	Y37	Z37	X38	Y38	Z38	X39	Y39	Z39	X40	Y40	Z40	X41	Y41	Z41	X42	Y42	Z42	X43	Y43	Z43	X44	Y44	Z44	X45	Y45	Z45	X46	Y46	Z46	X47	Y47	Z47	X48	Y48	Z48	X49	Y49	Z49	X50	Y50	Z50	X51	Y51	Z51	X52	Y52	Z52	X53	Y53	Z53	X54	Y54	Z54	X55	Y55	Z55	X56	Y56	Z56	X57	Y57	Z57	X58	Y58	Z58	X59	Y59	Z59	X60	Y60	Z60	X61	Y61	Z61	X62	Y62	Z62	

1	0	-289.8785400390626	1738.900146484375	-805.8851318359377	-336.5680541992188	1731.52587890625	-955.0697021484377	-475.583221435547	1700.398193359375	-869.7288818359377	-491.3720092773439	1541.594360351563	-928.0689697265627	-524.6566162109376	1233.9990234375	-930.0155029296877	-356.9353942871094	1487.724609375	-914.7312622070315	-382.0953369140626	1533.474731445313	-1099.605102539063	-452.0875244140626	1368.656982421875	-1254.486450195313	-421.2012634277345	1328.671752929688	-1247.648071289063	-462.187225341797	1309.308715820313	-1288.967407226563	-460.9798278808595	1250.149780273438	-1304.806274414063	-532.3934326171876	1242.689819335938	-1258.686889648438	-424.2700500488282	1020.863037109375	-1142.071533203125	-388.3167114257814	1001.296997070313	-1197.073364257813	-371.8882446289063	1009.50732421875	-1099.647216796875	-418.8156738281251	1508.1904296875	-724.4524536132814	-500.2336730957032	1340.41943359375	-593.1723632812501	-466.9527587890626	1301.667724609375	-593.6549682617189	-510.0636291503907	1279.45849609375	-558.8768920898439	-504.3416137695314	1217.81103515625	-543.2128295898439	-573.3931884765626	1204.820556640625	-595.9189453125001	-438.5355224609376	999.1690063476565	-707.0977172851564	-411.5899963378907	977.3045654296877	-643.9664306640626	-376.3601379394532	996.5120239257815	-745.4479370117189	-340.4684448242188	1028.165771484375	-1035.861206054688	-340.5428161621094	1005.22119140625	-817.614685058594	-507.3163452148439	1082.85888671875	-923.2202758789065	-510.6660156250001	1050.52392578125	-951.2578735351565	-460.3397827148439	809.0516357421877	-1125.752807617188	-433.4107360839845	729.4736328125001	-1133.668334960938	-385.6524658203126	727.8652343750001	-1127.733642578125	-464.6812744140626	678.2630004882814	-1123.728393554688	-461.4470214843751	518.0827636718751	-1124.075927734375	-445.1572265625001	497.5051879882814	-1004.756408691406	-436.6651000976564	336.2838134765626	-1076.929443359375	-469.253387451172	298.4238586425782	-1151.346923828125	-435.6382141113282	293.5979919433594	-1118.206420898438	-447.7657775878907	212.1453399658204	-1097.437622070313	-501.4397583007814	96.89902496337893	-1154.06591796875	-475.470672607422	99.78324890136722	-1071.275756835938	-555.4873046875001	49.01821136474611	-1105.750366210938	-338.4177551269532	61.78761291503908	-1103.388061523438	-343.3580932617188	64.1930389404297	-1149.510864257813	-381.6479187011719	41.63010406494141	-1194.210327148438	-455.2220764160157	754.7426147460939	-736.7631835937501	-417.7656555175782	699.2578735351564	-727.8935546875001	-384.838104248047	699.4297485351564	-732.7713012695314	-445.7542419433595	619.8348388671876	-740.8566284179689	-453.4614868164064	505.9704589843751	-743.7010498046876	-454.275360107422	491.4212951660157	-866.7619628906252	-416.6920776367189	374.8269958496094	-757.9204711914064	-492.7274475097657	311.4908752441407	-709.4608764648439	-450.790985107422	300.8415222167969	-724.7546386718751	-442.555633544922	247.5715789794922	-745.3119506835939	-515.9337768554689	96.63286590576175	-723.0023193359376	-491.4619445800782	99.57953643798831	-804.4757080078127	-567.5895996093751	49.92889785766603	-768.1790771484377	-355.1098022460938	63.07091522216798	-772.2048950195315	-351.3610534667969	59.98655319213869	-734.3357543945314	-389.3361206054689	41.23571395874024	-683.2550048828126	nan	nan	nan	nan	nan	nan	
2	0.005	-290.2558898925782	1738.80126953125	-805.490661621094	-336.3387451171876	1731.433837890625	-954.906188964844	-475.7314758300782	1700.650024414063	-870.0560302734377	-491.1711730957032	1540.858032226563	-927.7889404296877	-524.6499633789064	1233.947875976563	-930.014343261719	-356.8770751953126	1487.730712890625	-914.6294555664065	-382.0278930664063	1533.482177734375	-1099.5263671875	-451.9352111816407	1368.63330078125	-1254.468139648438	-421.0731201171876	1328.623168945313	-1247.539428710938	-461.9825439453126	1309.276733398438	-1288.892333984375	-460.820037841797	1250.126953125	-1304.788208007813	-532.0916748046876	1242.630981445313	-1258.757690429688	-424.1186828613282	1020.828735351563	-1142.057006835938	-388.1434631347657	1001.242370605469	-1197.017333984375	-371.7533874511719	1009.494995117188	-1099.586547851563	-419.200408935547	1508.23193359375	-724.3890991210939	-500.5520629882814	1340.416259765625	-593.2435302734376	-467.5200500488282	1301.60546875	-593.5751953125001	-510.4768981933595	1279.443725585938	-558.9219970703126	-504.850799560547	1217.800415039063	-543.2515258789064	-573.6227416992189	1204.77099609375	-596.1040649414064	-438.5821228027345	999.1431884765627	-707.1002807617189	-411.7776184082032	977.2454223632815	-643.9454956054689	-376.4250488281251	996.4553222656252	-745.4008178710939	-340.3908996582032	1028.140258789063	-1035.776489257813	-340.5678405761719	1005.234802246094	-817.4995117187502	-507.3163452148439	1082.85888671875	-923.2202758789065	-510.6523742675782	1050.512939453125	-951.2598876953127	-460.2117614746095	809.0803222656252	-1125.734741210938	-433.3023071289064	729.4644165039064	-1133.673583984375	-385.6319580078126	727.8786621093751	-1127.669189453125	-464.6051330566407	678.2310180664064	-1123.741455078125	-461.3827209472657	518.0874023437501	-1124.084838867188	-445.0581054687501	497.4461975097657	-1004.729125976563	-436.5893554687501	336.3017578125001	-1076.916748046875	-469.2119445800782	298.4529418945313	-1151.328735351563	-435.634979248047	293.5834960937501	-1118.208618164063	-447.6513671875001	212.1540679931641	-1097.427368164063	-501.402069091797	96.89081573486331	-1154.070434570313	-475.4713134765626	99.7739181518555	-1071.249389648438	-555.4848632812501	49.06804656982423	-1105.749633789063	-338.3778686523438	61.78908538818361	-1103.416870117188	-343.3332214355469	64.26217651367189	-1149.566040039063	-381.6575622558594	41.60052871704102	-1194.235229492188	-455.2482299804689	754.7111816406251	-736.7448120117189	-417.8785095214845	699.2708129882814	-727.6563110351564	-384.8652343750001	699.4502563476564	-732.7042846679689	-445.7666015625001	620.1702270507814	-741.1992187500001	-453.4681701660157	506.0097656250001	-743.6693725585939	-454.275115966797	491.4119262695314	-866.718444824219	-416.6842651367189	374.8408813476563	-757.8732910156251	-492.7149353027345	311.4625854492188	-709.4419555664064	-450.8050231933595	300.8101196289063	-724.7173461914064	-442.5797119140626	247.5604705810547	-745.2610473632814	-515.9230957031251	96.62924957275393	-723.0196533203126	-491.4972229003907	99.55806732177737	-804.4794921875002	-567.5983276367189	49.932918548584	-768.1553344726565	-355.1328735351563	63.07524490356447	-772.173034667969	-351.3471984863282	59.99897766113283	-734.3131713867189	-389.345428466797	41.19435119628907	-683.2971801757814	nan	nan	nan	nan	nan	nan	
3	0.01	-290.3360290527344	1738.707397460938	-805.318054199219	-335.9688110351563	1731.340454101563	-954.8508300781252	-475.8339233398439	1700.813354492188	-870.3681640625002	-491.4480895996095	1541.61083984375	-928.106628417969	-524.6791992187501	1233.950073242188	-930.0321044921877	-356.9486083984376	1487.720947265625	-914.5045166015627	-381.9409179687501	1533.444091796875	-1099.435546875	-451.6992797851564	1368.577026367188	-1254.439331054688	-420.924041748047	1328.59130859375	-1247.4912109375	-461.8421325683595	1309.228515625	-1288.867797851563	-460.577362060547	1250.065795898438	-1304.747192382813	-531.8779907226564	1242.554809570313	-1258.724487304688	-424.0215759277345	1020.828308105469	-1141.9873046875	-387.9251708984376	1001.21240234375	-1196.974243164063	-371.6542053222657	1009.468139648438	-1099.52392578125	-419.4600830078126	1508.275512695313	-724.3682250976564	-500.839324951172	1340.409790039063	-593.3032836914064	-467.8146362304689	1301.627563476563	-593.6976318359376	-510.7928771972657	1279.404907226563	-558.9878540039064	-505.2244873046876	1217.83837890625	-543.3110961914064	-573.8691406250001	1204.741821289063	-596.2715454101564	-438.7324829101564	999.150329589844	-707.0706787109376	-411.9153137207032	977.2270507812502	-643.9373779296876	-376.4860839843751	996.497985839844	-745.3205566406251	-340.3189392089844	1028.153686523438	-1035.691650390625	-340.6032409667969	1005.251281738281	-817.395446777344	-507.2537231445314	1082.818359375	-923.229919433594	-510.6660156250001	1050.52392578125	-951.2578735351565	-460.1640625000001	809.0767822265627	-1125.705932617188	-433.2020263671876	729.4656982421876	-1133.626098632813	-385.4966735839845	727.8786010742189	-1127.617065429688	-464.4745178222657	678.2419433593751	-1123.699951171875	-461.3347167968751	518.0443725585939	-1124.052978515625	-444.9909667968751	497.4728393554689	-1004.686340332031	-436.5749511718751	336.2306213378907	-1076.879760742188	-469.2119445800782	298.4529418945313	-1151.328735351563	-435.6522216796876	293.5483703613282	-1118.139892578125	-447.6463928222657	212.1560058593751	-1097.400634765625	-501.402069091797	96.89082336425784	-1154.070434570313	-475.4698486328126	99.75315093994143	-1071.225830078125	-555.4757080078126	49.0387420654297	-1105.745971679688	-338.3911132812501	61.79486465454103	-1103.3779296875	-343.3005065917969	64.25778198242189	-1149.592529296875	-381.5904541015626	41.61802673339844	-1194.213134765625	-455.2810363769532	754.6995239257814	-736.7169189453126	-418.0358276367189	699.5145874023439	-727.8621826171876	-385.0614318847657	699.1865844726564	-734.0468750000001	-445.8220214843751	620.1793823242189	-741.1634521484376	-453.4862365722657	505.9932250976564	-743.6344604492189	-454.2017211914064	491.4468688964845	-866.7116699218752	-416.667938232422	374.8308715820313	-757.8740234375001	-492.7411499023439	311.4878540039063	-709.4366455078126	-450.7977600097657	300.8269042968751	-724.6862182617189	-442.581024169922	247.5521240234376	-745.2703857421876	-515.9230346679689	96.6291427612305	-723.0195922851564	-491.4896850585939	99.556022644043	-804.4761962890627	-567.6069335937501	49.92345046997072	-768.1941528320315	-355.0798339843751	63.027889251709	-772.1964111328127	-351.3582458496094	60.0004005432129	-734.3480834960939	-389.3416748046876	41.20120239257813	-683.2678222656251	nan	nan	nan	nan	nan	nan	
4	0.015	-290.3725585937501	1738.615844726563	-805.1540527343752	-335.6912536621094	1731.233520507813	-954.683288574219	-475.8763122558595	1700.949829101563	-870.6900634765627	-491.5299377441407	1541.5771484375	-928.1127929687502	-524.6612548828126	1233.92578125	-930.0646972656252	-356.9526367187501	1487.710693359375	-914.3545532226565	-381.8850402832032	1533.457153320313	-1099.391967773438	-451.5480346679689	1368.5361328125	-1254.422973632813	-420.6665344238282	1328.619750976563	-1247.434692382813	-461.6621704101564	1309.208374023438	-1288.841552734375	-460.3460083007814	1250.066162109375	-1304.74365234375	-531.5651855468751	1242.500732421875	-1258.774291992188	-423.8394775390626	1020.776245117188	-1141.95947265625	-387.7826232910157	1001.133483886719	-1196.906982421875	-371.5651855468751	1009.444030761719	-1099.430786132813	-419.662567138672	1508.246459960938	-724.3717041015626	-501.6368103027345	1340.804931640625	-593.8822631835939	-468.1308593750001	1301.666259765625	-593.7694702148439	-511.1629333496095	1279.384887695313	-559.0098876953126	-505.6036071777345	1217.886596679688	-543.4029541015626	-574.0646362304689	1204.673706054688	-596.6102294921876	-438.9217834472657	999.1226806640627	-707.0615234375001	-412.077850341797	977.263610839844	-643.8695068359376	-376.5420532226563	996.4785766601565	-745.2379150390626	-340.2478027343751	1028.1669921875	-1035.6064453125	-340.6248474121094	1005.250183105469	-817.2514648437502	-507.237762451172	1082.864868164063	-923.2661132812502	-510.6129760742189	1050.526245117188	-951.2751464843752	-460.0570068359376	809.0717773437502	-1125.66943359375	-433.1439208984376	729.4786376953126	-1133.579711914063	-385.3768005371095	727.8874511718751	-1127.563720703125	-464.4745178222657	678.2419433593751	-1123.699951171875	-461.2354736328126	518.0470581054689	-1124.021728515625	-445.0272216796876	497.4749145507814	-1004.642761230469	-436.4842224121095	336.2533569335938	-1076.89013671875	-469.1400451660157	298.4523010253907	-1151.294921875	-435.5483703613282	293.5609130859376	-1118.091796875	-447.6463928222657	212.1560058593751	-1097.400634765625	-501.3972778320314	96.90579986572268	-1154.094116210938	-475.4775695800782	99.77561950683597	-1071.230590820313	-555.4759521484376	49.05728912353517	-1105.702758789063	-338.4043579101563	61.79445266723634	-1103.380493164063	-343.3650207519532	64.2113494873047	-1149.510009765625	-381.6770019531251	41.63085937500001	-1194.23388671875	-455.2893676757814	754.6892700195314	-736.6758422851564	-418.0744018554689	699.5170898437501	-727.8447875976564	-385.1111145019532	699.1538085937501	-733.9948730468751	-445.8018188476564	620.1933593750001	-741.1739501953126	-453.4749145507814	505.9903564453126	-743.6514282226564	-454.2193908691407	491.4214782714845	-866.679870605469	-416.6592102050782	374.8197631835938	-757.8393554687501	-492.7410278320314	311.4556579589844	-709.4109497070314	-450.7942199707032	300.8151245117188	-724.6923828125001	-442.5911254882814	247.523910522461	-745.2508544921876	-515.9163818359376	96.61907958984378	-723.0197753906251	-491.4542541503907	99.57888031005862	-804.4708251953127	-567.5897216796876	49.9297332763672	-768.1777954101565	-355.0798950195313	63.04584121704103	-772.1727294921877	-351.3203125000001	59.99464416503908	-734.3295898437501	-389.3276977539064	41.20233154296876	-683.2942504882814	nan	nan	nan	nan	nan	nan	
